<svg xmlns="http://www.w3.org/2000/svg" viewBox="0 0 184.62 45.35"><defs><style>.cls-1{fill:#edaa9d;}.cls-2{fill:#f9c7c0;}.cls-3{fill:#dd8c80;}.cls-4{fill:#bf5c68;}.cls-5{fill:#873845;}.cls-6{fill:#fff;}</style></defs><title>horizontal-short-white-text</title><g id="Layer_2" data-name="Layer 2"><g id="Layer_1-2" data-name="Layer 1"><circle class="cls-1" cx="22.46" cy="22.59" r="22.46"/><path class="cls-2" d="M39.45,25.46a2.89,2.89,0,0,1-2.88-2.87A14.13,14.13,0,0,0,22.46,8.48a2.88,2.88,0,0,1,0-5.76A19.89,19.89,0,0,1,42.33,22.59,2.9,2.9,0,0,1,39.45,25.46Z"/><path class="cls-3" d="M10.41,9.57a23.31,23.31,0,0,1,1-6.57A22.49,22.49,0,1,0,44,29.09,22.54,22.54,0,0,1,32.87,32,22.44,22.44,0,0,1,10.41,9.57Z"/><ellipse class="cls-3" cx="16.13" cy="29.87" rx="9.25" ry="8.97" transform="translate(-15.06 43.29) rotate(-84.92)"/><ellipse class="cls-4" cx="15.46" cy="30.4" rx="7.33" ry="7.05" transform="translate(-16.19 43.11) rotate(-84.92)"/><ellipse class="cls-5" cx="14.13" cy="31.06" rx="2.33" ry="2.26" transform="translate(-18.06 42.38) rotate(-84.92)"/><circle class="cls-1" cx="67.39" cy="22.55" r="22.46"/><path class="cls-2" d="M84.38,25.43a2.89,2.89,0,0,1-2.88-2.88A14.13,14.13,0,0,0,67.39,8.44a2.88,2.88,0,0,1,0-5.75A19.87,19.87,0,0,1,87.25,22.55,2.89,2.89,0,0,1,84.38,25.43Z"/><path class="cls-3" d="M55.34,9.54A23.43,23.43,0,0,1,56.3,3a22.49,22.49,0,1,0,32.6,26.1A22.56,22.56,0,0,1,77.8,32,22.43,22.43,0,0,1,55.34,9.54Z"/><ellipse class="cls-3" cx="61.06" cy="29.84" rx="9.25" ry="8.97" transform="translate(25.93 88.01) rotate(-84.92)"/><ellipse class="cls-4" cx="60.39" cy="30.37" rx="7.33" ry="7.05" transform="translate(24.79 87.83) rotate(-84.92)"/><ellipse class="cls-5" cx="59.06" cy="31.03" rx="2.33" ry="2.26" transform="translate(22.92 87.1) rotate(-84.92)"/><path class="cls-6" d="M114.33,15a5.22,5.22,0,0,0,3.4-1.15,5.89,5.89,0,0,0,1.94-3.37l3,.61a8.19,8.19,0,0,1-2.92,4.95,8.47,8.47,0,0,1-5.41,1.79A8.59,8.59,0,0,1,108,15.29a8.66,8.66,0,0,1-2.58-6.36A8.64,8.64,0,0,1,108,2.58a9.06,9.06,0,0,1,11.7-.82,7.91,7.91,0,0,1,3,4.78l-3,.83A5.75,5.75,0,0,0,117.77,4a5.22,5.22,0,0,0-3.39-1.16,5.48,5.48,0,0,0-4.1,1.74,6,6,0,0,0-1.65,4.32,6,6,0,0,0,1.68,4.32A5.49,5.49,0,0,0,114.42,15Z"/><path class="cls-6" d="M133.06,6.15,132.91,9h-.66q-4,0-4,4.84v3.65h-3V6.22h3v2a4.49,4.49,0,0,1,4.05-2.13A2.37,2.37,0,0,1,133.06,6.15Z"/><path class="cls-6" d="M145.73,19a4.7,4.7,0,0,1-1.63,3.68,6.11,6.11,0,0,1-4.27,1.45q-3.95,0-5.5-2.48l2.42-2.06a5.35,5.35,0,0,0,1.36,1.24,3.35,3.35,0,0,0,1.7.36,2.91,2.91,0,0,0,2.1-.79,2.53,2.53,0,0,0,.81-1.9v-2a4.76,4.76,0,0,1-3.55,1.36,4.32,4.32,0,0,1-3.28-1.33,4.84,4.84,0,0,1-1.24-3.44V6.24h3v6.24a2.83,2.83,0,0,0,.61,1.9,2.11,2.11,0,0,0,1.68.73c1.88,0,2.8-1.29,2.8-3.89v-5h3Z"/><path class="cls-6" d="M155.59,5.9a5.25,5.25,0,0,1,3.87,1.7,5.85,5.85,0,0,1,1.68,4.27,5.89,5.89,0,0,1-1.65,4.28,5.27,5.27,0,0,1-3.9,1.69,5.77,5.77,0,0,1-3.73-1.22v7.22h-3V6.22h3v.9a5.64,5.64,0,0,1,3.73-1.24Zm-.54,9.32a3.07,3.07,0,0,0,2.29-.93,3.39,3.39,0,0,0,.88-2.44,3.39,3.39,0,0,0-.88-2.44,3,3,0,0,0-2.27-.93,3.13,3.13,0,0,0-2.23.95,3.24,3.24,0,0,0-1,2.44,3.25,3.25,0,0,0,1,2.45,3.13,3.13,0,0,0,2.23.95Z"/><path class="cls-6" d="M167.2,13.37c0,1.15.48,1.71,1.43,1.71a4.07,4.07,0,0,0,1.87-.54l.86,2.49a6.09,6.09,0,0,1-2.94.84,4.13,4.13,0,0,1-3.1-1.11,4.42,4.42,0,0,1-1.08-3.19V8.66h-2.42V6.22h2.42V2.12l3-.9v5h4.37V8.66h-4.37Z"/><path class="cls-6" d="M178.47,5.86a6.11,6.11,0,0,1,4.34,1.69,5.67,5.67,0,0,1,1.81,4.3,5.64,5.64,0,0,1-1.79,4.3,6.11,6.11,0,0,1-4.34,1.69,6.26,6.26,0,0,1-4.41-1.67,5.54,5.54,0,0,1-1.79-4.27,5.68,5.68,0,0,1,1.81-4.32,6.2,6.2,0,0,1,4.41-1.7Zm0,9.36a3.22,3.22,0,0,0,3.26-3.37,3.27,3.27,0,1,0-6.54,0,3.24,3.24,0,0,0,1,2.44,3.31,3.31,0,0,0,2.36.93Z"/><path class="cls-6" d="M113.45,30.58V45h-3.07V30.58h-5.27V27.8h13.61v2.78Z"/><path class="cls-6" d="M122.39,28.12a1.7,1.7,0,0,1,1.29.54,1.76,1.76,0,0,1,.52,1.25,1.69,1.69,0,0,1-.52,1.24,1.91,1.91,0,0,1-2.58,0,1.67,1.67,0,0,1-.5-1.24,1.81,1.81,0,0,1,.52-1.27,1.7,1.7,0,0,1,1.29-.54ZM120.89,45V33.73h3V45Z"/><path class="cls-6" d="M131,40.85c0,1.16.47,1.72,1.42,1.72a4.08,4.08,0,0,0,1.88-.54l.86,2.49a6.18,6.18,0,0,1-2.94.83,4.17,4.17,0,0,1-3.1-1.1,4.42,4.42,0,0,1-1.08-3.19V36.15h-2.42V33.71h2.42v-4.1l3-.9v5h4.37v2.44h-4.37Z"/><path class="cls-6" d="M140.17,40.85c0,1.16.47,1.72,1.42,1.72a4.08,4.08,0,0,0,1.88-.54l.86,2.49a6.18,6.18,0,0,1-2.94.83,4.13,4.13,0,0,1-3.1-1.1,4.42,4.42,0,0,1-1.09-3.19V36.15h-2.42V33.71h2.42v-4.1l3-.9v5h4.37v2.44h-4.37Z"/><path class="cls-6" d="M147.81,28.12a1.7,1.7,0,0,1,1.29.54,1.76,1.76,0,0,1,.52,1.25,1.69,1.69,0,0,1-.52,1.24,1.91,1.91,0,0,1-2.58,0,1.7,1.7,0,0,1-.49-1.24,1.81,1.81,0,0,1,.52-1.27,1.7,1.7,0,0,1,1.29-.54ZM146.32,45V33.73h3V45Z"/><path class="cls-6" d="M163.24,40.15h-8.59a3.32,3.32,0,0,0,1,1.9,2.6,2.6,0,0,0,1.84.7,3,3,0,0,0,2.8-1.49l2.67.57a5.41,5.41,0,0,1-2.15,2.6,6.17,6.17,0,0,1-3.32.88,5.65,5.65,0,0,1-4.12-1.67,5.8,5.8,0,0,1-1.67-4.28A5.86,5.86,0,0,1,153.4,35a5.65,5.65,0,0,1,4.16-1.7,5.51,5.51,0,0,1,4,1.63,5.94,5.94,0,0,1,1.77,4.16ZM157.5,36a3,3,0,0,0-1.72.54,2.4,2.4,0,0,0-1,1.54h5.45a2.64,2.64,0,0,0-1-1.56,2.81,2.81,0,0,0-1.67-.52Z"/><path class="cls-6" d="M174.69,45h-9.8v-.81l5.43-8H165V33.71h9.63v1l-5.38,7.85h5.41Z"/></g></g></svg>