<svg xmlns="http://www.w3.org/2000/svg" viewBox="0 0 309.45 45.35"><defs><style>.cls-1{fill:#edaa9d;}.cls-2{fill:#f9c7c0;}.cls-3{fill:#dd8c80;}.cls-4{fill:#bf5c68;}.cls-5{fill:#873845;}.cls-6{fill:#fff;}</style></defs><title>horizontal-long-white-text</title><g id="Layer_2" data-name="Layer 2"><g id="Layer_1-2" data-name="Layer 1"><circle class="cls-1" cx="22.66" cy="22.7" r="22.66"/><path class="cls-2" d="M39.79,25.6a2.92,2.92,0,0,1-2.9-2.9A14.26,14.26,0,0,0,22.66,8.46a2.9,2.9,0,1,1,0-5.8,20,20,0,0,1,20,20A2.92,2.92,0,0,1,39.79,25.6Z"/><path class="cls-3" d="M10.5,9.57a23.73,23.73,0,0,1,1-6.63A22.68,22.68,0,1,0,44.35,29.26a22.79,22.79,0,0,1-11.19,3A22.63,22.63,0,0,1,10.5,9.57Z"/><ellipse class="cls-3" cx="16.27" cy="30.04" rx="9.33" ry="9.05" transform="translate(-15.1 43.59) rotate(-84.92)"/><ellipse class="cls-4" cx="15.6" cy="30.58" rx="7.39" ry="7.12" transform="translate(-16.25 43.41) rotate(-84.92)"/><ellipse class="cls-5" cx="14.25" cy="31.24" rx="2.35" ry="2.28" transform="translate(-18.13 42.67) rotate(-84.92)"/><circle class="cls-1" cx="67.98" cy="22.66" r="22.66"/><path class="cls-2" d="M85.11,25.56a2.92,2.92,0,0,1-2.9-2.9A14.25,14.25,0,0,0,68,8.43a2.9,2.9,0,0,1,0-5.8,20,20,0,0,1,20,20A2.92,2.92,0,0,1,85.11,25.56Z"/><path class="cls-3" d="M55.82,9.53a23.37,23.37,0,0,1,1-6.63A22.68,22.68,0,1,0,89.67,29.22,22.64,22.64,0,0,1,55.82,9.53Z"/><ellipse class="cls-3" cx="61.59" cy="30.01" rx="9.33" ry="9.05" transform="translate(26.24 88.69) rotate(-84.92)"/><ellipse class="cls-4" cx="60.92" cy="30.54" rx="7.39" ry="7.12" transform="translate(25.09 88.51) rotate(-84.92)"/><ellipse class="cls-5" cx="59.57" cy="31.21" rx="2.35" ry="2.28" transform="translate(23.21 87.78) rotate(-84.92)"/><path class="cls-6" d="M116.46,31.05a7.21,7.21,0,0,0,4.68-1.59,8.16,8.16,0,0,0,2.69-4.66l4.12.85a11.28,11.28,0,0,1-4,6.84A11.69,11.69,0,0,1,116.46,35a11.84,11.84,0,0,1-8.72-3.56,12,12,0,0,1-3.56-8.77,12.16,12.16,0,0,1,12.28-12.34,11.85,11.85,0,0,1,7.43,2.44A10.84,10.84,0,0,1,128,19.31l-4.12,1.15a8,8,0,0,0-2.66-4.62,7.21,7.21,0,0,0-4.68-1.59,7.53,7.53,0,0,0-5.65,2.4,8.29,8.29,0,0,0-2.28,6,8.29,8.29,0,0,0,2.31,6A7.56,7.56,0,0,0,116.58,31Z"/><path class="cls-6" d="M142.31,18.78l-.21,4h-.91c-3.72,0-5.56,2.22-5.56,6.69v5h-4.12V18.87h4.12v2.72a6.18,6.18,0,0,1,5.59-2.94A3.16,3.16,0,0,1,142.31,18.78Z"/><path class="cls-6" d="M159.8,36.51a6.54,6.54,0,0,1-2.25,5.1,8.5,8.5,0,0,1-5.9,2c-3.62,0-6.15-1.15-7.59-3.43l3.34-2.84a7.22,7.22,0,0,0,1.88,1.72,4.68,4.68,0,0,0,2.34.49,4,4,0,0,0,2.9-1.09,3.5,3.5,0,0,0,1.13-2.62V33.11A6.63,6.63,0,0,1,150.74,35a5.93,5.93,0,0,1-4.52-1.85,6.6,6.6,0,0,1-1.72-4.74V18.9h4.12v8.62a3.89,3.89,0,0,0,.84,2.62,2.92,2.92,0,0,0,2.32,1c2.59,0,3.87-1.78,3.87-5.37v-6.9h4.12Z"/><path class="cls-6" d="M173.42,18.43a7.23,7.23,0,0,1,5.34,2.35,8.08,8.08,0,0,1,2.31,5.9,8.08,8.08,0,0,1-2.28,5.9,7.27,7.27,0,0,1-5.37,2.34,8,8,0,0,1-5.16-1.68v10h-4.12V18.87h4.12v1.25a7.73,7.73,0,0,1,5.16-1.72Zm-.75,12.87A4.21,4.21,0,0,0,175.82,30,4.62,4.62,0,0,0,177,26.65a4.65,4.65,0,0,0-1.22-3.38A4.14,4.14,0,0,0,172.7,22a4.33,4.33,0,0,0-3.09,1.31,4.48,4.48,0,0,0-1.35,3.38,4.45,4.45,0,0,0,1.35,3.37,4.33,4.33,0,0,0,3.09,1.31Z"/><path class="cls-6" d="M189.44,28.74c0,1.59.65,2.37,2,2.37a5.61,5.61,0,0,0,2.59-.75l1.19,3.44A8.49,8.49,0,0,1,191.13,35a5.69,5.69,0,0,1-4.28-1.53,6.06,6.06,0,0,1-1.5-4.4V22.24H182V18.87h3.34V13.22L189.47,12v6.9h6v3.37h-6Z"/><path class="cls-6" d="M205,18.37a8.45,8.45,0,0,1,6,2.34,7.83,7.83,0,0,1,2.5,5.94A7.8,7.8,0,0,1,211,32.58a8.45,8.45,0,0,1-6,2.34,8.67,8.67,0,0,1-6.09-2.31,7.68,7.68,0,0,1-2.46-5.9,7.9,7.9,0,0,1,2.49-6,8.56,8.56,0,0,1,6.09-2.34Zm0,12.93a4.43,4.43,0,0,0,4.5-4.65,4.52,4.52,0,1,0-9,0A4.48,4.48,0,0,0,201.74,30,4.56,4.56,0,0,0,205,31.3Z"/><path class="cls-6" d="M224.92,14.56V34.45h-4.25V14.56h-7.28V10.72h18.8v3.84Z"/><path class="cls-6" d="M237.25,11.16a2.36,2.36,0,0,1,1.78.74,2.45,2.45,0,0,1,.72,1.72,2.33,2.33,0,0,1-.72,1.72,2.64,2.64,0,0,1-3.56,0,2.31,2.31,0,0,1-.69-1.72,2.52,2.52,0,0,1,.72-1.75,2.33,2.33,0,0,1,1.78-.75Zm-2.06,23.33V18.9h4.12V34.49Z"/><path class="cls-6" d="M249.18,28.74c0,1.59.66,2.37,2,2.37a5.61,5.61,0,0,0,2.59-.75l1.19,3.44A8.49,8.49,0,0,1,250.87,35a5.69,5.69,0,0,1-4.28-1.53,6.06,6.06,0,0,1-1.5-4.4V22.24h-3.34V18.87h3.34V13.22L249.21,12v6.9h6v3.37h-6Z"/><path class="cls-6" d="M261.8,28.74c0,1.59.65,2.37,2,2.37a5.61,5.61,0,0,0,2.6-.75l1.18,3.44A8.46,8.46,0,0,1,263.48,35a5.67,5.67,0,0,1-4.27-1.53,6.06,6.06,0,0,1-1.5-4.4V22.24h-3.35V18.87h3.35V13.22L261.83,12v6.9h6v3.37h-6Z"/><path class="cls-6" d="M272.35,11.16a2.36,2.36,0,0,1,1.78.74,2.45,2.45,0,0,1,.72,1.72,2.33,2.33,0,0,1-.72,1.72,2.64,2.64,0,0,1-3.56,0,2.3,2.3,0,0,1-.68-1.72,2.55,2.55,0,0,1,.71-1.75,2.35,2.35,0,0,1,1.78-.75Zm-2.06,23.33V18.9h4.12V34.49Z"/><path class="cls-6" d="M293.65,27.77H281.78a4.66,4.66,0,0,0,1.41,2.62,3.6,3.6,0,0,0,2.53,1,4.16,4.16,0,0,0,3.87-2.06l3.69.78a7.43,7.43,0,0,1-3,3.59,8.46,8.46,0,0,1-4.59,1.22A7.78,7.78,0,0,1,280,32.58a8,8,0,0,1-2.31-5.9,8.11,8.11,0,0,1,2.35-6,7.78,7.78,0,0,1,5.74-2.34,7.59,7.59,0,0,1,5.5,2.25,8.19,8.19,0,0,1,2.44,5.75ZM285.72,22a4.16,4.16,0,0,0-2.37.75,3.42,3.42,0,0,0-1.44,2.13h7.53a3.67,3.67,0,0,0-1.38-2.16,3.89,3.89,0,0,0-2.31-.72Z"/><path class="cls-6" d="M309.45,34.45H295.93V33.33l7.5-11.09h-7.31V18.87h13.3v1.37L302,31.08h7.46Z"/></g></g></svg>