<svg xmlns="http://www.w3.org/2000/svg" viewBox="0 0 45.35 45.35"><defs><style>.cls-1{fill:#edaa9d;}.cls-2{fill:#f9c7c0;}.cls-3{fill:#dd8c80;}.cls-4{fill:#bf5c68;}.cls-5{fill:#873845;}</style></defs><title>icon_1</title><g id="Layer_2" data-name="Layer 2"><g id="Layer_1-2" data-name="Layer 1"><circle class="cls-1" cx="22.68" cy="22.68" r="22.68"/><path class="cls-2" d="M39.82,25.58a2.92,2.92,0,0,1-2.9-2.9A14.27,14.27,0,0,0,22.68,8.43a2.9,2.9,0,1,1,0-5.8,20.07,20.07,0,0,1,20,20.05A2.92,2.92,0,0,1,39.82,25.58Z"/><path class="cls-3" d="M10.51,9.54a23.49,23.49,0,0,1,1-6.64A22.7,22.7,0,1,0,44.39,29.25a22.83,22.83,0,0,1-11.2,3A22.65,22.65,0,0,1,10.51,9.54Z"/><ellipse class="cls-3" cx="16.28" cy="30.03" rx="9.33" ry="9.06" transform="translate(-15.08 43.59) rotate(-84.92)"/><ellipse class="cls-4" cx="15.61" cy="30.57" rx="7.4" ry="7.12" transform="translate(-16.22 43.41) rotate(-84.92)"/><ellipse class="cls-5" cx="14.26" cy="31.23" rx="2.35" ry="2.28" transform="translate(-18.11 42.67) rotate(-84.92)"/></g></g></svg>