<svg xmlns="http://www.w3.org/2000/svg" viewBox="0 0 63.39 46.55"><defs><style>.cls-1{fill:#fff;}.cls-2{fill:#edaa9d;}.cls-3{fill:#f9c7c0;}.cls-4{fill:#dd8c80;}.cls-5{fill:#bf5c68;}.cls-6{fill:#873845;}</style></defs><title>vertical-white-text</title><g id="Layer_2" data-name="Layer 2"><g id="Layer_1-2" data-name="Layer 1"><path class="cls-1" d="M3.79,42.67a2.23,2.23,0,0,0,1.45-.49,2.51,2.51,0,0,0,.82-1.44L7.34,41a3.48,3.48,0,0,1-1.25,2.11,3.59,3.59,0,0,1-2.3.77,3.67,3.67,0,0,1-2.69-1.1,3.89,3.89,0,0,1,0-5.42,3.67,3.67,0,0,1,2.69-1.1A3.64,3.64,0,0,1,6.08,37a3.38,3.38,0,0,1,1.27,2l-1.28.36A2.4,2.4,0,0,0,5.25,38a2.19,2.19,0,0,0-1.44-.5,2.31,2.31,0,0,0-1.75.75,2.75,2.75,0,0,0,0,3.68,2.36,2.36,0,0,0,1.76.74Z"/><path class="cls-1" d="M11.78,38.88l-.07,1.23h-.28c-1.15,0-1.72.68-1.72,2.06v1.55H8.44V38.91H9.71v.84a1.92,1.92,0,0,1,1.73-.91A1.05,1.05,0,0,1,11.78,38.88Z"/><path class="cls-1" d="M17.18,44.36a2,2,0,0,1-.7,1.57,2.64,2.64,0,0,1-1.82.62,2.55,2.55,0,0,1-2.34-1.06l1-.88a2.13,2.13,0,0,0,.58.53,1.48,1.48,0,0,0,.72.15,1.25,1.25,0,0,0,.9-.33,1.1,1.1,0,0,0,.34-.81v-.84a2,2,0,0,1-1.51.58,1.87,1.87,0,0,1-1.4-.57,2,2,0,0,1-.53-1.47V38.92h1.27v2.66a1.21,1.21,0,0,0,.26.81.93.93,0,0,0,.72.31c.8,0,1.19-.55,1.19-1.66V38.91h1.28Z"/><path class="cls-1" d="M21.38,38.78A2.24,2.24,0,0,1,23,39.5a2.7,2.7,0,0,1,0,3.64,2.25,2.25,0,0,1-1.66.73,2.49,2.49,0,0,1-1.59-.52v3.07H18.52V38.91h1.27v.39a2.37,2.37,0,0,1,1.59-.53Zm-.23,4a1.29,1.29,0,0,0,1-.4,1.61,1.61,0,0,0,0-2.08,1.28,1.28,0,0,0-1-.4,1.37,1.37,0,0,0-1,.41,1.52,1.52,0,0,0,0,2.08,1.37,1.37,0,0,0,1,.41Z"/><path class="cls-1" d="M26.33,42c0,.49.2.73.61.73a1.79,1.79,0,0,0,.8-.23l.36,1.06a2.6,2.6,0,0,1-1.25.36,1.75,1.75,0,0,1-1.32-.48A1.87,1.87,0,0,1,25.07,42V40H24v-1h1V37.17l1.27-.39v2.13H28.2v1H26.34Z"/><path class="cls-1" d="M31.13,38.76a2.59,2.59,0,0,1,1.85.72,2.55,2.55,0,0,1,0,3.66,2.6,2.6,0,0,1-1.85.73,2.69,2.69,0,0,1-1.88-.72,2.36,2.36,0,0,1-.76-1.82,2.43,2.43,0,0,1,.77-1.84,2.65,2.65,0,0,1,1.88-.72Zm0,4a1.37,1.37,0,1,0-1-.4,1.41,1.41,0,0,0,1,.4Z"/><path class="cls-1" d="M37.29,37.58v6.14H36V37.58H33.73V36.39h5.8v1.19Z"/><path class="cls-1" d="M41.1,36.53a.75.75,0,0,1,.55.23.77.77,0,0,1,.22.53.74.74,0,0,1-.77.74.7.7,0,0,1-.55-.21.69.69,0,0,1-.22-.53.76.76,0,0,1,.23-.54.72.72,0,0,1,.55-.23Zm-.64,7.2V38.92h1.27v4.81Z"/><path class="cls-1" d="M44.78,42c0,.49.2.73.61.73a1.79,1.79,0,0,0,.8-.23l.36,1.06a2.6,2.6,0,0,1-1.25.36A1.75,1.75,0,0,1,44,43.4,1.87,1.87,0,0,1,43.52,42V40h-1v-1h1V37.17l1.27-.39v2.13h1.86v1H44.79Z"/><path class="cls-1" d="M48.68,42c0,.49.2.73.6.73a1.72,1.72,0,0,0,.8-.23l.37,1.06a2.63,2.63,0,0,1-1.25.36,1.75,1.75,0,0,1-1.32-.48A1.87,1.87,0,0,1,47.41,42V40h-1v-1h1V37.17l1.28-.39v2.13h1.86v1H48.69Z"/><path class="cls-1" d="M51.94,36.53a.75.75,0,0,1,.55.23.77.77,0,0,1,.22.53.74.74,0,0,1-.77.74.72.72,0,0,1-.55-.21.69.69,0,0,1-.21-.53.75.75,0,0,1,.22-.54.73.73,0,0,1,.55-.23Zm-.64,7.2V38.92h1.27v4.81Z"/><path class="cls-1" d="M58.51,41.66H54.85a1.45,1.45,0,0,0,.43.81,1.16,1.16,0,0,0,.79.3,1.29,1.29,0,0,0,1.19-.64l1.14.24a2.26,2.26,0,0,1-.92,1.11,2.63,2.63,0,0,1-1.41.38,2.37,2.37,0,0,1-1.76-.72,2.47,2.47,0,0,1-.71-1.82,2.5,2.5,0,0,1,.72-1.84,2.41,2.41,0,0,1,1.77-.72,2.35,2.35,0,0,1,1.7.69,2.53,2.53,0,0,1,.75,1.77Zm-2.44-1.79a1.26,1.26,0,0,0-.74.24,1,1,0,0,0-.44.65h2.32a1.08,1.08,0,0,0-.42-.66,1.19,1.19,0,0,0-.72-.23Z"/><path class="cls-1" d="M63.39,43.72H59.22v-.35L61.53,40H59.28v-1h4.1v.42l-2.29,3.35h2.3Z"/><circle class="cls-2" cx="15.85" cy="15.87" r="15.85"/><path class="cls-3" d="M27.83,17.9a2,2,0,0,1-2-2,10,10,0,0,0-10-9.95,2,2,0,1,1,0-4.06,14,14,0,0,1,14,14A2,2,0,0,1,27.83,17.9Z"/><path class="cls-4" d="M7.34,6.69A16.8,16.8,0,0,1,8,2.05,15.87,15.87,0,1,0,31,20.46,15.83,15.83,0,0,1,7.34,6.69Z"/><ellipse class="cls-4" cx="11.38" cy="21.01" rx="6.52" ry="6.33" transform="matrix(0.09, -1, 1, 0.09, -10.56, 30.49)"/><ellipse class="cls-5" cx="10.91" cy="21.39" rx="5.17" ry="4.98" transform="translate(-11.36 30.36) rotate(-84.92)"/><ellipse class="cls-6" cx="9.97" cy="21.85" rx="1.64" ry="1.59" transform="translate(-12.68 29.85) rotate(-84.92)"/><circle class="cls-2" cx="47.55" cy="15.85" r="15.85"/><path class="cls-3" d="M59.53,17.88a2,2,0,0,1-2-2,10,10,0,0,0-10-10,2,2,0,1,1,0-4,14,14,0,0,1,14,14A2,2,0,0,1,59.53,17.88Z"/><path class="cls-4" d="M39,6.67A16.38,16.38,0,0,1,39.72,2a15.87,15.87,0,1,0,23,18.41,16,16,0,0,1-7.83,2.08A15.83,15.83,0,0,1,39,6.67Z"/><ellipse class="cls-4" cx="43.08" cy="20.99" rx="6.52" ry="6.33" transform="translate(18.35 62.04) rotate(-84.92)"/><ellipse class="cls-5" cx="42.61" cy="21.36" rx="5.17" ry="4.98" transform="translate(17.55 61.91) rotate(-84.92)"/><ellipse class="cls-6" cx="41.67" cy="21.83" rx="1.64" ry="1.59" transform="translate(16.23 61.4) rotate(-84.92)"/></g></g></svg>