<svg xmlns="http://www.w3.org/2000/svg" viewBox="0 0 195.62 45.35"><defs><style>.cls-1{fill:#f7dfe8;}.cls-2{fill:#edaa9d;}.cls-3{fill:#f9c7c0;}.cls-4{fill:#dd8c80;}.cls-5{fill:#bf5c68;}.cls-6{fill:#873845;}.cls-7{fill:#29123d;}</style></defs><title>horizontal-short-dark-text</title><g id="Layer_2" data-name="Layer 2"><g id="Layer_1-2" data-name="Layer 1"><path class="cls-1" d="M77.88,40.87v4.18c-18.52,0-33.53-.94-33.53-2.09S59.36,40.87,77.88,40.87Z"/><path class="cls-1" d="M33.52,40.87v4.18C15,45.05,0,44.11,0,43S15,40.87,33.52,40.87Z"/><circle class="cls-2" cx="33.47" cy="22.59" r="22.46"/><path class="cls-3" d="M50.45,25.46a2.89,2.89,0,0,1-2.87-2.87A14.13,14.13,0,0,0,33.47,8.48a2.88,2.88,0,1,1,0-5.76A19.89,19.89,0,0,1,53.33,22.59,2.89,2.89,0,0,1,50.45,25.46Z"/><path class="cls-4" d="M21.41,9.57a23.67,23.67,0,0,1,1-6.57A22.49,22.49,0,1,0,55,29.09,22.44,22.44,0,0,1,21.41,9.57Z"/><ellipse class="cls-4" cx="27.13" cy="29.87" rx="9.25" ry="8.97" transform="matrix(0.09, -1, 1, 0.09, -5.03, 54.25)"/><ellipse class="cls-5" cx="26.47" cy="30.4" rx="7.33" ry="7.05" transform="translate(-6.16 54.07) rotate(-84.92)"/><ellipse class="cls-6" cx="25.13" cy="31.06" rx="2.33" ry="2.26" transform="translate(-8.03 53.34) rotate(-84.92)"/><circle class="cls-2" cx="78.4" cy="22.55" r="22.46"/><path class="cls-3" d="M95.38,25.43a2.9,2.9,0,0,1-2.88-2.88A14.13,14.13,0,0,0,78.4,8.44a2.88,2.88,0,1,1,0-5.75A19.88,19.88,0,0,1,98.26,22.55,2.89,2.89,0,0,1,95.38,25.43Z"/><path class="cls-4" d="M66.34,9.54A23.43,23.43,0,0,1,67.3,3a22.49,22.49,0,1,0,32.6,26.1A22.45,22.45,0,0,1,66.34,9.54Z"/><ellipse class="cls-4" cx="72.06" cy="29.84" rx="9.25" ry="8.97" transform="translate(35.96 98.97) rotate(-84.92)"/><ellipse class="cls-5" cx="71.39" cy="30.37" rx="7.33" ry="7.05" transform="translate(34.82 98.79) rotate(-84.92)"/><ellipse class="cls-6" cx="70.06" cy="31.03" rx="2.33" ry="2.26" transform="translate(32.95 98.06) rotate(-84.92)"/><path class="cls-7" d="M125.34,15a5.21,5.21,0,0,0,3.39-1.15,5.89,5.89,0,0,0,1.94-3.37l3,.61a8.14,8.14,0,0,1-2.92,4.95,8.43,8.43,0,0,1-5.4,1.79A8.6,8.6,0,0,1,119,15.29a8.69,8.69,0,0,1-2.57-6.36A8.67,8.67,0,0,1,119,2.58a9.06,9.06,0,0,1,11.7-.82,7.86,7.86,0,0,1,3,4.78l-3,.83A5.76,5.76,0,0,0,128.77,4a5.22,5.22,0,0,0-3.39-1.16,5.44,5.44,0,0,0-4.09,1.74,6,6,0,0,0-1.65,4.32,6,6,0,0,0,1.67,4.32A5.49,5.49,0,0,0,125.43,15Z"/><path class="cls-7" d="M144.07,6.15,143.91,9h-.66c-2.69,0-4,1.61-4,4.84v3.65h-3V6.22h3v2a4.47,4.47,0,0,1,4.05-2.13A2.41,2.41,0,0,1,144.07,6.15Z"/><path class="cls-7" d="M156.73,19a4.72,4.72,0,0,1-1.62,3.68,6.15,6.15,0,0,1-4.28,1.45c-2.62,0-4.46-.83-5.5-2.48l2.42-2.06a5.35,5.35,0,0,0,1.36,1.24,3.38,3.38,0,0,0,1.7.36,2.91,2.91,0,0,0,2.1-.79,2.54,2.54,0,0,0,.82-1.9v-2a4.8,4.8,0,0,1-3.56,1.36,4.33,4.33,0,0,1-3.28-1.33,4.84,4.84,0,0,1-1.24-3.44V6.24h3v6.24a2.78,2.78,0,0,0,.61,1.9,2.08,2.08,0,0,0,1.67.73c1.88,0,2.81-1.29,2.81-3.89v-5h3Z"/><path class="cls-7" d="M166.6,5.9a5.27,5.27,0,0,1,3.87,1.7,5.88,5.88,0,0,1,1.67,4.27,5.85,5.85,0,0,1-1.65,4.28,5.27,5.27,0,0,1-3.89,1.69,5.73,5.73,0,0,1-3.73-1.22v7.22h-3V6.22h3v.9a5.6,5.6,0,0,1,3.73-1.24Zm-.55,9.32a3.07,3.07,0,0,0,2.29-.93,3.35,3.35,0,0,0,.88-2.44,3.35,3.35,0,0,0-.88-2.44,3,3,0,0,0-2.26-.93,3.14,3.14,0,0,0-2.24.95,3.23,3.23,0,0,0-1,2.44,3.24,3.24,0,0,0,1,2.45,3.14,3.14,0,0,0,2.24.95Z"/><path class="cls-7" d="M178.2,13.37c0,1.15.48,1.71,1.43,1.71a4.11,4.11,0,0,0,1.88-.54l.85,2.49a6.09,6.09,0,0,1-2.94.84,4.09,4.09,0,0,1-3.09-1.11,4.38,4.38,0,0,1-1.09-3.19V8.66h-2.42V6.22h2.42V2.12l3-.9v5h4.36V8.66h-4.36Z"/><path class="cls-7" d="M189.47,5.86a6.11,6.11,0,0,1,4.34,1.69,5.67,5.67,0,0,1,1.81,4.3,5.64,5.64,0,0,1-1.79,4.3,6.09,6.09,0,0,1-4.34,1.69,6.26,6.26,0,0,1-4.41-1.67,5.54,5.54,0,0,1-1.79-4.27,5.68,5.68,0,0,1,1.81-4.32,6.2,6.2,0,0,1,4.41-1.7Zm0,9.36a3.22,3.22,0,0,0,3.25-3.37,3.27,3.27,0,1,0-6.53,0,3.2,3.2,0,0,0,1,2.44,3.27,3.27,0,0,0,2.35.93Z"/><path class="cls-7" d="M124.45,30.58V45h-3.07V30.58h-5.27V27.8h13.61v2.78Z"/><path class="cls-7" d="M133.39,28.12a1.7,1.7,0,0,1,1.29.54,1.76,1.76,0,0,1,.52,1.25,1.69,1.69,0,0,1-.52,1.24,1.91,1.91,0,0,1-2.58,0,1.67,1.67,0,0,1-.5-1.24,1.81,1.81,0,0,1,.52-1.27,1.7,1.7,0,0,1,1.29-.54ZM131.9,45V33.73h3V45Z"/><path class="cls-7" d="M142,40.85c0,1.16.48,1.72,1.43,1.72a4.07,4.07,0,0,0,1.87-.54l.86,2.49a6.18,6.18,0,0,1-2.94.83,4.17,4.17,0,0,1-3.1-1.1,4.42,4.42,0,0,1-1.08-3.19V36.15h-2.42V33.71h2.42v-4.1l3-.9v5h4.37v2.44h-4.37Z"/><path class="cls-7" d="M151.17,40.85c0,1.16.47,1.72,1.43,1.72a4.07,4.07,0,0,0,1.87-.54l.86,2.49a6.18,6.18,0,0,1-2.94.83,4.17,4.17,0,0,1-3.1-1.1,4.42,4.42,0,0,1-1.08-3.19V36.15h-2.42V33.71h2.42v-4.1l3-.9v5h4.37v2.44h-4.37Z"/><path class="cls-7" d="M158.82,28.12a1.7,1.7,0,0,1,1.29.54,1.81,1.81,0,0,1,.52,1.25,1.84,1.84,0,0,1-3.1,1.24,1.67,1.67,0,0,1-.5-1.24,1.81,1.81,0,0,1,.52-1.27,1.7,1.7,0,0,1,1.29-.54ZM157.32,45V33.73h3V45Z"/><path class="cls-7" d="M174.24,40.15h-8.59a3.39,3.39,0,0,0,1,1.9,2.59,2.59,0,0,0,1.83.7,3,3,0,0,0,2.8-1.49l2.67.57a5.35,5.35,0,0,1-2.15,2.6,6.17,6.17,0,0,1-3.32.88,5.65,5.65,0,0,1-4.12-1.67,5.8,5.8,0,0,1-1.67-4.28A5.86,5.86,0,0,1,164.4,35a5.66,5.66,0,0,1,4.17-1.7,5.54,5.54,0,0,1,4,1.63,6,6,0,0,1,1.76,4.16ZM168.5,36a3,3,0,0,0-1.72.54,2.47,2.47,0,0,0-1,1.54h5.45a2.64,2.64,0,0,0-1-1.56,2.81,2.81,0,0,0-1.67-.52Z"/><path class="cls-7" d="M185.69,45H175.9v-.81l5.42-8H176V33.71h9.64v1l-5.39,7.85h5.41Z"/></g></g></svg>