<svg xmlns="http://www.w3.org/2000/svg" viewBox="0 0 320.55 45.35"><defs><style>.cls-1{fill:#f7dfe8;}.cls-2{fill:#edaa9d;}.cls-3{fill:#f9c7c0;}.cls-4{fill:#dd8c80;}.cls-5{fill:#bf5c68;}.cls-6{fill:#873845;}.cls-7{fill:#29123d;}</style></defs><title>horizontal-long-dark.text</title><g id="Layer_2" data-name="Layer 2"><g id="Layer_1-2" data-name="Layer 1"><path class="cls-1" d="M78.55,41.14v4.21c-18.67,0-33.81-.94-33.81-2.1S59.88,41.14,78.55,41.14Z"/><path class="cls-1" d="M33.81,41.14v4.21C15.14,45.35,0,44.41,0,43.25S15.14,41.14,33.81,41.14Z"/><circle class="cls-2" cx="33.76" cy="22.7" r="22.66"/><path class="cls-3" d="M50.89,25.6A2.92,2.92,0,0,1,48,22.7,14.26,14.26,0,0,0,33.76,8.46a2.9,2.9,0,1,1,0-5.8,20,20,0,0,1,20,20A2.92,2.92,0,0,1,50.89,25.6Z"/><path class="cls-4" d="M21.6,9.57a23.37,23.37,0,0,1,1-6.63A22.68,22.68,0,1,0,55.45,29.26a22.82,22.82,0,0,1-11.19,3A22.63,22.63,0,0,1,21.6,9.57Z"/><ellipse class="cls-4" cx="27.36" cy="30.04" rx="9.33" ry="9.05" transform="translate(-4.99 54.64) rotate(-84.92)"/><ellipse class="cls-5" cx="26.7" cy="30.58" rx="7.39" ry="7.12" transform="translate(-6.13 54.46) rotate(-84.92)"/><ellipse class="cls-6" cx="25.35" cy="31.24" rx="2.35" ry="2.28" transform="translate(-8.02 53.73) rotate(-84.92)"/><circle class="cls-2" cx="79.07" cy="22.66" r="22.66"/><path class="cls-3" d="M96.21,25.56a2.92,2.92,0,0,1-2.9-2.9A14.26,14.26,0,0,0,79.07,8.43a2.9,2.9,0,1,1,0-5.8,20,20,0,0,1,20,20A2.92,2.92,0,0,1,96.21,25.56Z"/><path class="cls-4" d="M66.92,9.53a23.73,23.73,0,0,1,1-6.63,22.68,22.68,0,1,0,32.89,26.32A22.64,22.64,0,0,1,66.92,9.53Z"/><ellipse class="cls-4" cx="72.68" cy="30.01" rx="9.33" ry="9.05" transform="translate(36.35 99.75) rotate(-84.92)"/><ellipse class="cls-5" cx="72.01" cy="30.54" rx="7.39" ry="7.12" transform="translate(35.21 99.57) rotate(-84.92)"/><ellipse class="cls-6" cx="70.67" cy="31.21" rx="2.35" ry="2.28" transform="translate(33.32 98.83) rotate(-84.92)"/><path class="cls-7" d="M127.55,31.05a7.24,7.24,0,0,0,4.69-1.59,8.1,8.1,0,0,0,2.68-4.66l4.13.85a11.33,11.33,0,0,1-4,6.84,12.5,12.5,0,0,1-16.18-1.1,12,12,0,0,1-3.56-8.77,12,12,0,0,1,3.56-8.78A12.49,12.49,0,0,1,135,12.72a10.89,10.89,0,0,1,4.09,6.59L135,20.46a8,8,0,0,0-2.65-4.62,7.21,7.21,0,0,0-4.68-1.59,7.55,7.55,0,0,0-5.66,2.4,8.29,8.29,0,0,0-2.28,6,8.29,8.29,0,0,0,2.31,6A7.58,7.58,0,0,0,127.68,31Z"/><path class="cls-7" d="M153.41,18.78l-.22,4h-.9c-3.72,0-5.56,2.22-5.56,6.69v5h-4.12V18.87h4.12v2.72a6.18,6.18,0,0,1,5.59-2.94A3.16,3.16,0,0,1,153.41,18.78Z"/><path class="cls-7" d="M170.9,36.51a6.54,6.54,0,0,1-2.25,5.1,8.52,8.52,0,0,1-5.9,2c-3.62,0-6.15-1.15-7.59-3.43l3.34-2.84a7.22,7.22,0,0,0,1.88,1.72,4.68,4.68,0,0,0,2.34.49,4,4,0,0,0,2.9-1.09,3.5,3.5,0,0,0,1.13-2.62V33.11A6.63,6.63,0,0,1,161.84,35a6,6,0,0,1-4.53-1.85,6.64,6.64,0,0,1-1.71-4.74V18.9h4.12v8.62a3.89,3.89,0,0,0,.84,2.62,2.89,2.89,0,0,0,2.31,1c2.6,0,3.88-1.78,3.88-5.37v-6.9h4.12Z"/><path class="cls-7" d="M184.52,18.43a7.23,7.23,0,0,1,5.34,2.35,8.08,8.08,0,0,1,2.31,5.9,8.08,8.08,0,0,1-2.28,5.9,7.27,7.27,0,0,1-5.37,2.34,8,8,0,0,1-5.16-1.68v10h-4.12V18.87h4.12v1.25a7.71,7.71,0,0,1,5.16-1.72Zm-.75,12.87A4.21,4.21,0,0,0,186.92,30a4.66,4.66,0,0,0,1.22-3.37,4.69,4.69,0,0,0-1.22-3.38A4.14,4.14,0,0,0,183.8,22a4.33,4.33,0,0,0-3.09,1.31,4.48,4.48,0,0,0-1.35,3.38,4.45,4.45,0,0,0,1.35,3.37,4.33,4.33,0,0,0,3.09,1.31Z"/><path class="cls-7" d="M200.54,28.74c0,1.59.65,2.37,2,2.37a5.64,5.64,0,0,0,2.6-.75l1.18,3.44A8.46,8.46,0,0,1,202.22,35a5.71,5.71,0,0,1-4.28-1.53,6.11,6.11,0,0,1-1.5-4.4V22.24H193.1V18.87h3.34V13.22L200.57,12v6.9h6v3.37h-6Z"/><path class="cls-7" d="M216.09,18.37a8.41,8.41,0,0,1,6,2.34,7.79,7.79,0,0,1,2.5,5.94,7.79,7.79,0,0,1-2.46,5.93,8.45,8.45,0,0,1-6,2.34A8.67,8.67,0,0,1,210,32.61a7.69,7.69,0,0,1-2.47-5.9,7.91,7.91,0,0,1,2.5-6,8.56,8.56,0,0,1,6.09-2.34Zm0,12.93a4.43,4.43,0,0,0,4.49-4.65,4.51,4.51,0,1,0-9,0A4.48,4.48,0,0,0,212.84,30a4.56,4.56,0,0,0,3.25,1.28Z"/><path class="cls-7" d="M236,14.56V34.45h-4.24V14.56h-7.28V10.72h18.8v3.84Z"/><path class="cls-7" d="M248.35,11.16a2.36,2.36,0,0,1,1.78.74,2.45,2.45,0,0,1,.72,1.72,2.33,2.33,0,0,1-.72,1.72,2.64,2.64,0,0,1-3.56,0,2.31,2.31,0,0,1-.69-1.72,2.52,2.52,0,0,1,.72-1.75,2.33,2.33,0,0,1,1.78-.75Zm-2.06,23.33V18.9h4.12V34.49Z"/><path class="cls-7" d="M260.28,28.74c0,1.59.65,2.37,2,2.37a5.61,5.61,0,0,0,2.59-.75L266,33.8A8.44,8.44,0,0,1,262,35a5.68,5.68,0,0,1-4.27-1.53,6.06,6.06,0,0,1-1.5-4.4V22.24h-3.34V18.87h3.34V13.22L260.31,12v6.9h6v3.37h-6Z"/><path class="cls-7" d="M272.89,28.74c0,1.59.66,2.37,2,2.37a5.58,5.58,0,0,0,2.59-.75l1.19,3.44A8.46,8.46,0,0,1,274.58,35a5.71,5.71,0,0,1-4.28-1.53,6.06,6.06,0,0,1-1.5-4.4V22.24h-3.34V18.87h3.34V13.22L272.93,12v6.9h6v3.37h-6Z"/><path class="cls-7" d="M283.45,11.16a2.36,2.36,0,0,1,1.78.74,2.45,2.45,0,0,1,.72,1.72,2.33,2.33,0,0,1-.72,1.72,2.64,2.64,0,0,1-3.56,0,2.31,2.31,0,0,1-.69-1.72,2.52,2.52,0,0,1,.72-1.75,2.33,2.33,0,0,1,1.78-.75Zm-2.06,23.33V18.9h4.12V34.49Z"/><path class="cls-7" d="M304.75,27.77H292.88a4.66,4.66,0,0,0,1.41,2.62,3.6,3.6,0,0,0,2.53,1,4.16,4.16,0,0,0,3.87-2.06l3.68.78a7.36,7.36,0,0,1-3,3.59,8.46,8.46,0,0,1-4.59,1.22,7.76,7.76,0,0,1-5.69-2.31,8,8,0,0,1-2.31-5.9,8.1,8.1,0,0,1,2.34-6,7.82,7.82,0,0,1,5.75-2.34,7.61,7.61,0,0,1,5.5,2.25,8.14,8.14,0,0,1,2.43,5.75ZM296.82,22a4.19,4.19,0,0,0-2.38.75A3.37,3.37,0,0,0,293,24.87h7.52a3.7,3.7,0,0,0-1.37-2.16,3.91,3.91,0,0,0-2.31-.72Z"/><path class="cls-7" d="M320.55,34.45H307V33.33l7.49-11.09h-7.3V18.87h13.3v1.37l-7.43,10.84h7.46Z"/></g></g></svg>