<svg xmlns="http://www.w3.org/2000/svg" viewBox="0 0 71.16 46.55"><defs><style>.cls-1{fill:#29123d;}.cls-2{fill:#f7dfe8;}.cls-3{fill:#edaa9d;}.cls-4{fill:#f9c7c0;}.cls-5{fill:#dd8c80;}.cls-6{fill:#bf5c68;}.cls-7{fill:#873845;}</style></defs><title>verical-dark-text</title><g id="Layer_2" data-name="Layer 2"><g id="Layer_1-2" data-name="Layer 1"><path class="cls-1" d="M11.55,42.67A2.23,2.23,0,0,0,13,42.18a2.57,2.57,0,0,0,.83-1.44L15.1,41a3.47,3.47,0,0,1-1.24,2.11,3.63,3.63,0,0,1-2.31.77,3.67,3.67,0,0,1-2.69-1.1,3.89,3.89,0,0,1,0-5.42,3.67,3.67,0,0,1,2.69-1.1,3.69,3.69,0,0,1,2.3.75,3.37,3.37,0,0,1,1.26,2l-1.27.36A2.51,2.51,0,0,0,13,38a2.24,2.24,0,0,0-1.45-.5,2.29,2.29,0,0,0-1.74.75,2.51,2.51,0,0,0-.71,1.84,2.57,2.57,0,0,0,.71,1.84,2.38,2.38,0,0,0,1.76.74Z"/><path class="cls-1" d="M19.54,38.88l-.07,1.23h-.28c-1.15,0-1.72.68-1.72,2.06v1.55H16.2V38.91h1.27v.84a1.92,1.92,0,0,1,1.73-.91A1.05,1.05,0,0,1,19.54,38.88Z"/><path class="cls-1" d="M24.94,44.36a2,2,0,0,1-.7,1.57,2.64,2.64,0,0,1-1.82.62,2.55,2.55,0,0,1-2.34-1.06l1-.88a2.28,2.28,0,0,0,.58.53,1.48,1.48,0,0,0,.72.15,1.25,1.25,0,0,0,.9-.33,1.11,1.11,0,0,0,.35-.81v-.84a2.08,2.08,0,0,1-1.52.58,1.87,1.87,0,0,1-1.4-.57,2.09,2.09,0,0,1-.53-1.47V38.92h1.28v2.66a1.16,1.16,0,0,0,.26.81.89.89,0,0,0,.71.31c.8,0,1.2-.55,1.2-1.66V38.91h1.27Z"/><path class="cls-1" d="M29.14,38.78a2.24,2.24,0,0,1,1.65.72,2.47,2.47,0,0,1,.72,1.82,2.5,2.5,0,0,1-.71,1.82,2.25,2.25,0,0,1-1.66.73,2.53,2.53,0,0,1-1.59-.52v3.07H26.28V38.91h1.27v.39a2.39,2.39,0,0,1,1.59-.53Zm-.23,4a1.31,1.31,0,0,0,1-.4,1.65,1.65,0,0,0,0-2.08,1.29,1.29,0,0,0-1-.4,1.35,1.35,0,0,0-1,.41,1.5,1.5,0,0,0,0,2.08,1.35,1.35,0,0,0,1,.41Z"/><path class="cls-1" d="M34.09,42c0,.49.2.73.61.73a1.79,1.79,0,0,0,.8-.23l.37,1.06a2.67,2.67,0,0,1-1.26.36,1.75,1.75,0,0,1-1.32-.48A1.87,1.87,0,0,1,32.83,42V40h-1v-1h1V37.17l1.27-.39v2.13H36v1H34.1Z"/><path class="cls-1" d="M38.89,38.76a2.61,2.61,0,0,1,1.86.72,2.57,2.57,0,0,1,0,3.66,2.64,2.64,0,0,1-1.86.73A2.71,2.71,0,0,1,37,43.15a2.36,2.36,0,0,1-.76-1.82A2.43,2.43,0,0,1,37,39.49a2.66,2.66,0,0,1,1.88-.72Zm0,4a1.37,1.37,0,1,0-1-.4,1.41,1.41,0,0,0,1,.4Z"/><path class="cls-1" d="M45.05,37.58v6.14H43.74V37.58H41.49V36.39h5.8v1.19Z"/><path class="cls-1" d="M48.86,36.53a.75.75,0,0,1,.55.23.77.77,0,0,1,.22.53.74.74,0,0,1-.77.74.72.72,0,0,1-.55-.21.69.69,0,0,1-.21-.53.75.75,0,0,1,.22-.54.73.73,0,0,1,.55-.23Zm-.64,7.2V38.92H49.5v4.81Z"/><path class="cls-1" d="M52.54,42c0,.49.2.73.61.73a1.79,1.79,0,0,0,.8-.23l.37,1.06a2.67,2.67,0,0,1-1.26.36,1.75,1.75,0,0,1-1.32-.48A1.87,1.87,0,0,1,51.28,42V40h-1v-1h1V37.17l1.27-.39v2.13h1.86v1H52.55Z"/><path class="cls-1" d="M56.44,42c0,.49.2.73.61.73a1.79,1.79,0,0,0,.8-.23l.36,1.06a2.6,2.6,0,0,1-1.25.36,1.75,1.75,0,0,1-1.32-.48A1.87,1.87,0,0,1,55.18,42V40h-1v-1h1V37.17l1.27-.39v2.13h1.86v1H56.45Z"/><path class="cls-1" d="M59.7,36.53a.75.75,0,0,1,.55.23.77.77,0,0,1,.22.53.74.74,0,0,1-.77.74.72.72,0,0,1-.55-.21.69.69,0,0,1-.21-.53.75.75,0,0,1,.22-.54.73.73,0,0,1,.55-.23Zm-.64,7.2V38.92h1.28v4.81Z"/><path class="cls-1" d="M66.28,41.66H62.61a1.4,1.4,0,0,0,.44.81,1.12,1.12,0,0,0,.78.3A1.28,1.28,0,0,0,65,42.13l1.14.24a2.26,2.26,0,0,1-.92,1.11,2.61,2.61,0,0,1-1.41.38,2.37,2.37,0,0,1-1.76-.72,2.47,2.47,0,0,1-.71-1.82,2.5,2.5,0,0,1,.72-1.84,2.41,2.41,0,0,1,1.78-.72,2.34,2.34,0,0,1,1.69.69,2.49,2.49,0,0,1,.76,1.77Zm-2.45-1.79a1.3,1.3,0,0,0-.74.24,1,1,0,0,0-.44.65H65a1.08,1.08,0,0,0-.42-.66,1.16,1.16,0,0,0-.71-.23Z"/><path class="cls-1" d="M71.16,43.72H67v-.35L69.3,40H67v-1h4.11v.42l-2.3,3.35h2.31Z"/><path class="cls-2" d="M54.94,28.77v2.95c-13.06,0-23.65-.66-23.65-1.47S41.88,28.77,54.94,28.77Z"/><path class="cls-2" d="M23.65,28.77v2.95C10.59,31.72,0,31.06,0,30.25S10.59,28.77,23.65,28.77Z"/><circle class="cls-3" cx="23.61" cy="15.87" r="15.85"/><path class="cls-4" d="M35.59,17.9a2,2,0,0,1-2-2,10,10,0,0,0-10-9.95,2,2,0,0,1,0-4.06,14,14,0,0,1,14,14A2,2,0,0,1,35.59,17.9Z"/><path class="cls-5" d="M15.11,6.69a16.79,16.79,0,0,1,.67-4.64,15.87,15.87,0,1,0,23,18.41A15.83,15.83,0,0,1,15.11,6.69Z"/><ellipse class="cls-5" cx="19.14" cy="21.01" rx="6.52" ry="6.33" transform="matrix(0.09, -1, 1, 0.09, -3.49, 38.22)"/><ellipse class="cls-6" cx="18.67" cy="21.39" rx="5.17" ry="4.98" transform="translate(-4.29 38.09) rotate(-84.92)"/><ellipse class="cls-7" cx="17.73" cy="21.85" rx="1.64" ry="1.59" transform="translate(-5.61 37.58) rotate(-84.92)"/><circle class="cls-3" cx="55.31" cy="15.85" r="15.85"/><path class="cls-4" d="M67.29,17.88a2,2,0,0,1-2-2,10,10,0,0,0-10-10,2,2,0,1,1,0-4,14,14,0,0,1,14,14A2,2,0,0,1,67.29,17.88Z"/><path class="cls-5" d="M46.8,6.67A16.74,16.74,0,0,1,47.48,2a15.87,15.87,0,1,0,23,18.41,16,16,0,0,1-7.83,2.08A15.84,15.84,0,0,1,46.8,6.67Z"/><ellipse class="cls-5" cx="50.84" cy="20.99" rx="6.52" ry="6.33" transform="translate(25.43 69.77) rotate(-84.92)"/><ellipse class="cls-6" cx="50.37" cy="21.36" rx="5.17" ry="4.98" transform="translate(24.63 69.64) rotate(-84.92)"/><ellipse class="cls-7" cx="49.43" cy="21.83" rx="1.64" ry="1.59" transform="translate(23.31 69.13) rotate(-84.92)"/></g></g></svg>