<svg xmlns="http://www.w3.org/2000/svg" viewBox="0 0 45.07 45.07"><defs><style>.cls-1{fill:#fff;}</style></defs><title>dark-icon</title><g id="Layer_2" data-name="Layer 2"><g id="Layer_1-2" data-name="Layer 1"><path class="cls-1" d="M22.53,0A22.48,22.48,0,0,0,11.39,3s0,0,0,0A22.56,22.56,0,0,0,5.32,8l-.27.33-.43.54-.47.64c-.09.12-.18.24-.26.37-.24.35-.48.72-.7,1.09l-.12.22c-.2.33-.38.67-.56,1l-.12.24A21.82,21.82,0,0,0,1.29,15a.88.88,0,0,1-.05.15c-.13.39-.26.78-.37,1.18,0,.08-.05.16-.07.24a22.72,22.72,0,0,0-.57,2.75c0,.11,0,.22,0,.33,0,.36-.08.72-.11,1.08l0,.39c0,.46,0,.93,0,1.4H0A22.54,22.54,0,0,0,22.51,45.07h0c.57,0,1.14,0,1.7-.07l.33,0c.54,0,1.07-.11,1.6-.19l.29-.06c.51-.08,1-.19,1.5-.31l.15,0c.52-.14,1-.29,1.54-.46l.3-.1c.5-.18,1-.37,1.49-.58l.15-.07c.48-.21,1-.43,1.41-.67a.61.61,0,0,1,.14-.07c.48-.26.95-.54,1.41-.83l.18-.11a22.3,22.3,0,0,0,2.69-2l.06-.06c.43-.38.84-.77,1.24-1.18l0,0A22.13,22.13,0,0,0,41,35.48h0a22.56,22.56,0,0,0,2.51-4.64s0-.08,0-.12q.31-.8.57-1.62v0h0A22.55,22.55,0,0,0,22.53,0Zm0,2.67a19.84,19.84,0,0,1,18.13,28A22.25,22.25,0,0,1,33,32a22.61,22.61,0,0,1-7.84-1.4A9.14,9.14,0,0,0,17,20.6a8.79,8.79,0,0,0-3.41.38,22.4,22.4,0,0,1-3.15-11.5,22.33,22.33,0,0,1,.2-2.84A19.72,19.72,0,0,1,22.53,2.67ZM16.16,23.05a7.36,7.36,0,0,1-1.3,14.65,7.36,7.36,0,0,1,1.3-14.65Z"/><path class="cls-1" d="M14,33.36a2.34,2.34,0,1,0-2.05-2.52A2.29,2.29,0,0,0,14,33.36Z"/></g></g></svg>