<svg xmlns="http://www.w3.org/2000/svg" viewBox="0 0 63.39 46.56"><defs><style>.cls-1{fill:#fff;}</style></defs><title>vertical-dark</title><g id="Layer_2" data-name="Layer 2"><g id="Layer_1-2" data-name="Layer 1"><path class="cls-1" d="M3.79,42.69a2.29,2.29,0,0,0,1.45-.49,2.51,2.51,0,0,0,.82-1.44L7.34,41a3.48,3.48,0,0,1-1.25,2.11,3.58,3.58,0,0,1-2.3.76,3.63,3.63,0,0,1-2.69-1.1,3.89,3.89,0,0,1,0-5.42,3.66,3.66,0,0,1,2.69-1.09A3.64,3.64,0,0,1,6.08,37a3.35,3.35,0,0,1,1.27,2l-1.28.36A2.43,2.43,0,0,0,5.25,38a2.19,2.19,0,0,0-1.44-.49,2.34,2.34,0,0,0-1.75.74,2.56,2.56,0,0,0-.7,1.84,2.59,2.59,0,0,0,.71,1.85,2.36,2.36,0,0,0,1.76.74Z"/><path class="cls-1" d="M11.78,38.9l-.07,1.22h-.28c-1.15,0-1.72.69-1.72,2.07v1.55H8.44V38.93H9.71v.84a1.92,1.92,0,0,1,1.73-.91A1.05,1.05,0,0,1,11.78,38.9Z"/><path class="cls-1" d="M17.18,44.37a2,2,0,0,1-.7,1.58,2.64,2.64,0,0,1-1.82.61,2.53,2.53,0,0,1-2.34-1.06l1-.87a2.13,2.13,0,0,0,.58.53,1.48,1.48,0,0,0,.72.15,1.25,1.25,0,0,0,.9-.34,1.07,1.07,0,0,0,.34-.81v-.84a2,2,0,0,1-1.51.58,1.83,1.83,0,0,1-1.4-.57,2,2,0,0,1-.53-1.46V38.94h1.27V41.6a1.21,1.21,0,0,0,.26.81.93.93,0,0,0,.72.31c.8,0,1.19-.55,1.19-1.66V38.93h1.28Z"/><path class="cls-1" d="M21.38,38.79a2.21,2.21,0,0,1,1.65.73,2.7,2.7,0,0,1,0,3.64,2.24,2.24,0,0,1-1.66.72,2.43,2.43,0,0,1-1.59-.52v3.08H18.52V38.93h1.27v.38a2.42,2.42,0,0,1,1.59-.53Zm-.23,4a1.28,1.28,0,0,0,1-.39,1.45,1.45,0,0,0,.38-1,1.43,1.43,0,0,0-.38-1,1.28,1.28,0,0,0-1-.4,1.37,1.37,0,0,0-1,.41,1.4,1.4,0,0,0-.41,1,1.42,1.42,0,0,0,.41,1,1.36,1.36,0,0,0,1,.4Z"/><path class="cls-1" d="M26.33,42c0,.5.2.74.61.74a1.79,1.79,0,0,0,.8-.23l.36,1.06a2.58,2.58,0,0,1-1.25.35,1.75,1.75,0,0,1-1.32-.47,1.87,1.87,0,0,1-.46-1.36V40H24v-1h1V37.18l1.27-.38v2.13H28.2v1H26.34Z"/><path class="cls-1" d="M31.13,38.77A2.56,2.56,0,0,1,33,39.5a2.55,2.55,0,0,1,0,3.66,2.59,2.59,0,0,1-1.85.72,2.68,2.68,0,0,1-1.88-.71,2.36,2.36,0,0,1-.76-1.82,2.41,2.41,0,0,1,.77-1.84,2.61,2.61,0,0,1,1.88-.73Zm0,4a1.35,1.35,0,1,0-1-.39,1.4,1.4,0,0,0,1,.39Z"/><path class="cls-1" d="M37.29,37.6v6.14H36V37.6H33.73V36.41h5.8V37.6Z"/><path class="cls-1" d="M41.1,36.55a.71.71,0,0,1,.55.23.75.75,0,0,1,0,1.06.77.77,0,0,1-.55.21.74.74,0,0,1-.55-.21.71.71,0,0,1-.22-.53.74.74,0,0,1,.23-.54.68.68,0,0,1,.55-.23Zm-.64,7.2V38.94h1.27v4.81Z"/><path class="cls-1" d="M44.78,42c0,.5.2.74.61.74a1.79,1.79,0,0,0,.8-.23l.36,1.06a2.58,2.58,0,0,1-1.25.35A1.75,1.75,0,0,1,44,43.42a1.87,1.87,0,0,1-.46-1.36V40h-1v-1h1V37.18l1.27-.38v2.13h1.86v1H44.79Z"/><path class="cls-1" d="M48.68,42c0,.5.2.74.6.74a1.72,1.72,0,0,0,.8-.23l.37,1.06a2.61,2.61,0,0,1-1.25.35,1.75,1.75,0,0,1-1.32-.47,1.87,1.87,0,0,1-.47-1.36V40h-1v-1h1V37.18l1.28-.38v2.13h1.86v1H48.69Z"/><path class="cls-1" d="M51.94,36.55a.71.71,0,0,1,.55.23.75.75,0,0,1,0,1.06.77.77,0,0,1-.55.21.75.75,0,0,1-.55-.21.7.7,0,0,1-.21-.53.73.73,0,0,1,.22-.54.7.7,0,0,1,.55-.23Zm-.64,7.2V38.94h1.27v4.81Z"/><path class="cls-1" d="M58.51,41.68H54.85a1.52,1.52,0,0,0,.43.81,1.15,1.15,0,0,0,.79.29,1.29,1.29,0,0,0,1.19-.63l1.14.24a2.26,2.26,0,0,1-.92,1.11,2.63,2.63,0,0,1-1.41.37,2.4,2.4,0,0,1-1.76-.71,2.47,2.47,0,0,1-.71-1.82,2.5,2.5,0,0,1,.72-1.84,2.38,2.38,0,0,1,1.77-.73,2.32,2.32,0,0,1,1.7.7,2.53,2.53,0,0,1,.75,1.77Zm-2.44-1.79a1.32,1.32,0,0,0-.74.23,1.09,1.09,0,0,0-.44.66h2.32a1.13,1.13,0,0,0-.42-.67,1.25,1.25,0,0,0-.72-.22Z"/><path class="cls-1" d="M63.39,43.74H59.22v-.35L61.53,40H59.28v-1h4.1v.42L61.09,42.7h2.3Z"/><path class="cls-1" d="M10.42,20.1a1.64,1.64,0,1,0,1.44,1.77A1.61,1.61,0,0,0,10.42,20.1Z"/><path class="cls-1" d="M63,15.76A15.77,15.77,0,0,0,35.23,5.59L35,5.82q-.16.2-.3.39c-.12.14-.22.29-.33.44l-.18.26c-.17.25-.33.5-.49.77l-.09.14-.39.71a1.3,1.3,0,0,1-.08.17,16,16,0,0,0-.77,1.8l0,.1c-.1.27-.18.55-.26.83a1.09,1.09,0,0,0,0,.17,14.29,14.29,0,0,0-.37,1.75A15.77,15.77,0,0,0,8.33,2.09,15.51,15.51,0,0,0,4.09,5.62l-.2.23-.3.38-.32.45-.18.25c-.17.25-.34.51-.49.77l-.09.15-.39.71s-.05.11-.08.16a16,16,0,0,0-.77,1.8.42.42,0,0,1,0,.1c-.09.28-.18.55-.26.83,0,.06,0,.12,0,.17a13.93,13.93,0,0,0-.4,1.92l0,.24c0,.25-.06.5-.08.75,0,.09,0,.18,0,.27,0,.33,0,.65,0,1h0A15.75,15.75,0,0,0,16.11,31.55h0c.39,0,.79,0,1.18-.05l.23,0c.38,0,.75-.08,1.12-.14l.2,0c.36-.06.71-.13,1.05-.22l.11,0c.36-.09.72-.2,1.08-.32l.21-.07c.35-.12.7-.25,1-.4l.11-.05c.33-.15.66-.3,1-.47l.1-.05c.33-.18.66-.37,1-.58l.13-.08a16.25,16.25,0,0,0,1.88-1.42l0,0c.3-.26.59-.54.87-.83l0,0A15.66,15.66,0,0,0,29,24.84h0a16.06,16.06,0,0,0,1.75-3.24l0-.09c.15-.37.28-.75.4-1.13v0h0a16.64,16.64,0,0,0,.49-2.14A15.76,15.76,0,0,0,47.25,31.52h0c.4,0,.79,0,1.18-.05l.24,0c.37,0,.75-.08,1.12-.13l.2,0c.35-.06.7-.13,1.05-.22l.1,0,1.08-.32.21-.07c.35-.13.7-.26,1-.41l.11,0c.33-.14.66-.3,1-.47l.1,0c.33-.18.66-.37,1-.57l.13-.08a17.47,17.47,0,0,0,1.88-1.42l0,0c.3-.27.59-.54.87-.83l0,0a17.39,17.39,0,0,0,1.55-1.88h0a16.13,16.13,0,0,0,1.75-3.25l0-.08c.15-.37.28-.75.4-1.14h0A15.69,15.69,0,0,0,63,15.76Zm-46.89,6a5,5,0,0,1-5.38,4.68,5.14,5.14,0,0,1,.91-10.24A5,5,0,0,1,16.14,21.71Zm12.66-.26a15.41,15.41,0,0,1-5.37,1,15.8,15.8,0,0,1-5.48-1,6.39,6.39,0,0,0-5.69-7,6,6,0,0,0-2.39.26,15.66,15.66,0,0,1-2.2-8,16.35,16.35,0,0,1,.13-2,13.88,13.88,0,0,1,21,16.78Zm18.49.23a5,5,0,1,1-4.48-5.56A5.06,5.06,0,0,1,47.29,21.68ZM60,21.43a15.74,15.74,0,0,1-5.38,1,15.84,15.84,0,0,1-5.48-1A6.27,6.27,0,0,0,41,14.67a15.73,15.73,0,0,1-2.2-8,14.42,14.42,0,0,1,.14-2,13.76,13.76,0,0,1,8.32-2.78A13.89,13.89,0,0,1,60,21.43Z"/><path class="cls-1" d="M42,20.08a1.63,1.63,0,1,0,1.43,1.77A1.61,1.61,0,0,0,42,20.08Z"/></g></g></svg>