<svg xmlns="http://www.w3.org/2000/svg" viewBox="0 0 184.93 46.04"><defs><style>.cls-1{fill:#29123d;}</style></defs><title>horizontal-short-dark</title><g id="Layer_2" data-name="Layer 2"><g id="Layer_1-2" data-name="Layer 1"><path class="cls-1" d="M114.65,15.38A5.21,5.21,0,0,0,118,14.23,5.9,5.9,0,0,0,120,10.86l3,.61a8.18,8.18,0,0,1-2.91,5,8.47,8.47,0,0,1-5.41,1.79,8.58,8.58,0,0,1-6.31-2.58,8.64,8.64,0,0,1-2.58-6.36,8.64,8.64,0,0,1,2.58-6.35A9,9,0,0,1,120,2.1a7.87,7.87,0,0,1,3,4.78l-3,.83a5.78,5.78,0,0,0-1.92-3.34,5.22,5.22,0,0,0-3.39-1.16A5.48,5.48,0,0,0,110.6,5,6,6,0,0,0,109,9.27a6,6,0,0,0,1.67,4.32,5.49,5.49,0,0,0,4.12,1.75Z"/><path class="cls-1" d="M133.38,6.49l-.16,2.87h-.65c-2.7,0-4,1.61-4,4.84v3.65h-3V6.56h3v2a4.47,4.47,0,0,1,4.05-2.13A2.37,2.37,0,0,1,133.38,6.49Z"/><path class="cls-1" d="M146.05,19.34A4.73,4.73,0,0,1,144.42,23a6.18,6.18,0,0,1-4.28,1.44q-3.93,0-5.49-2.48l2.42-2.06a5,5,0,0,0,1.36,1.24,3.34,3.34,0,0,0,1.69.36,3,3,0,0,0,2.11-.79,2.53,2.53,0,0,0,.81-1.9v-2a4.78,4.78,0,0,1-3.55,1.36,4.32,4.32,0,0,1-3.28-1.33A4.81,4.81,0,0,1,135,13.46V6.58h3v6.24a2.83,2.83,0,0,0,.61,1.91,2.12,2.12,0,0,0,1.68.72c1.87,0,2.8-1.29,2.8-3.89v-5h3Z"/><path class="cls-1" d="M155.91,6.24a5.27,5.27,0,0,1,3.87,1.7,5.86,5.86,0,0,1,1.67,4.27,5.85,5.85,0,0,1-1.65,4.28,5.28,5.28,0,0,1-3.89,1.7A5.76,5.76,0,0,1,152.18,17v7.22h-3V6.56h3v.9a5.64,5.64,0,0,1,3.73-1.24Zm-.54,9.32a3,3,0,0,0,2.28-.93,3.36,3.36,0,0,0,.89-2.44,3.36,3.36,0,0,0-.89-2.44,3,3,0,0,0-2.26-.93,3.15,3.15,0,0,0-2.24.95,3.27,3.27,0,0,0-1,2.44,3.28,3.28,0,0,0,1,2.45,3.15,3.15,0,0,0,2.24.95Z"/><path class="cls-1" d="M167.52,13.71c0,1.15.47,1.72,1.42,1.72a4,4,0,0,0,1.88-.55l.86,2.49a6.09,6.09,0,0,1-2.94.84,4.1,4.1,0,0,1-3.1-1.11,4.42,4.42,0,0,1-1.09-3.19V9h-2.42V6.56h2.42V2.47l3-.91v5h4.37V9h-4.37Z"/><path class="cls-1" d="M178.78,6.2a6.11,6.11,0,0,1,4.35,1.69,5.7,5.7,0,0,1,1.8,4.3,5.63,5.63,0,0,1-1.78,4.3,6.11,6.11,0,0,1-4.34,1.7,6.27,6.27,0,0,1-4.42-1.68,5.57,5.57,0,0,1-1.78-4.27,5.7,5.7,0,0,1,1.81-4.32,6.2,6.2,0,0,1,4.41-1.7Zm0,9.36a3.2,3.2,0,0,0,2.31-.93,3.24,3.24,0,0,0,1-2.44,3.27,3.27,0,1,0-6.54,0,3.22,3.22,0,0,0,3.3,3.37Z"/><path class="cls-1" d="M113.77,30.93v14.4h-3.08V30.93h-5.27V28.14H119v2.79Z"/><path class="cls-1" d="M122.7,28.46A1.7,1.7,0,0,1,124,29a1.78,1.78,0,0,1,.52,1.25,1.69,1.69,0,0,1-.52,1.24,1.91,1.91,0,0,1-2.58,0,1.7,1.7,0,0,1-.49-1.24,1.81,1.81,0,0,1,.52-1.27,1.7,1.7,0,0,1,1.29-.54Zm-1.49,16.9V34.07h3V45.36Z"/><path class="cls-1" d="M131.35,41.2c0,1.15.47,1.71,1.42,1.71a4.08,4.08,0,0,0,1.88-.54l.86,2.49a6.23,6.23,0,0,1-2.94.84,4.14,4.14,0,0,1-3.1-1.11,4.38,4.38,0,0,1-1.09-3.19V36.49H126V34.05h2.42V30l3-.9v5h4.36v2.44h-4.36Z"/><path class="cls-1" d="M140.48,41.2c0,1.15.48,1.71,1.43,1.71a4.11,4.11,0,0,0,1.88-.54l.86,2.49a6.23,6.23,0,0,1-2.94.84,4.14,4.14,0,0,1-3.1-1.11,4.38,4.38,0,0,1-1.09-3.19V36.49H135.1V34.05h2.42V30l3-.9v5h4.36v2.44h-4.36Z"/><path class="cls-1" d="M148.13,28.46a1.7,1.7,0,0,1,1.29.54,1.78,1.78,0,0,1,.52,1.25,1.69,1.69,0,0,1-.52,1.24,1.91,1.91,0,0,1-2.58,0,1.67,1.67,0,0,1-.5-1.24,1.81,1.81,0,0,1,.52-1.27,1.7,1.7,0,0,1,1.29-.54Zm-1.49,16.9V34.07h3V45.36Z"/><path class="cls-1" d="M163.56,40.49H155a3.39,3.39,0,0,0,1,1.9,2.59,2.59,0,0,0,1.83.7,3,3,0,0,0,2.81-1.49l2.67.57a5.41,5.41,0,0,1-2.15,2.6,6.18,6.18,0,0,1-3.33.88A5.61,5.61,0,0,1,153.7,44,5.81,5.81,0,0,1,152,39.7a5.87,5.87,0,0,1,1.7-4.32,5.65,5.65,0,0,1,4.16-1.7,5.52,5.52,0,0,1,4,1.63,5.89,5.89,0,0,1,1.76,4.16Zm-5.75-4.18a3.06,3.06,0,0,0-1.72.54,2.47,2.47,0,0,0-1,1.54h5.45a2.67,2.67,0,0,0-1-1.56,2.84,2.84,0,0,0-1.68-.52Z"/><path class="cls-1" d="M175,45.33h-9.79v-.81l5.43-8h-5.29V34.05H175v1l-5.38,7.85H175Z"/><path class="cls-1" d="M14.68,29.34a2.39,2.39,0,1,0,2.09,2.58A2.36,2.36,0,0,0,14.68,29.34Z"/><path class="cls-1" d="M91.45,23A23,23,0,0,0,50.88,8.16c-.1.11-.19.23-.28.34s-.3.37-.44.56-.32.43-.48.65-.18.24-.26.37c-.25.37-.49.74-.72,1.12l-.12.22c-.2.34-.39.68-.57,1l-.12.24a21.86,21.86,0,0,0-1.12,2.63.88.88,0,0,0-.05.15c-.14.4-.27.8-.39,1.21a2.17,2.17,0,0,1-.07.24,24.2,24.2,0,0,0-.53,2.56A23,23,0,0,0,5.43,8.2c-.09.11-.19.22-.28.34l-.44.55-.48.66L4,10.12c-.25.36-.49.74-.71,1.12a1.59,1.59,0,0,0-.13.22c-.2.33-.39.68-.57,1l-.12.24a24.27,24.27,0,0,0-1.12,2.62l-.05.15c-.14.4-.27.81-.38,1.22A2.17,2.17,0,0,0,.82,17a21.87,21.87,0,0,0-.58,2.81c0,.11,0,.22,0,.33,0,.37-.08.73-.11,1.1l0,.4c0,.48,0,.95,0,1.44H0A23,23,0,0,0,23,46h0c.58,0,1.16,0,1.73-.08l.34,0c.55,0,1.09-.12,1.63-.2l.3-.06c.51-.09,1-.19,1.53-.32l.15,0c.53-.14,1.05-.3,1.57-.47l.31-.1c.51-.18,1-.37,1.52-.59l.16-.07c.48-.21,1-.44,1.43-.69l.14-.07c.49-.26,1-.55,1.44-.84l.18-.12a23.26,23.26,0,0,0,2.75-2.07l.06-.06c.44-.38.86-.79,1.27-1.21l0,0a23.19,23.19,0,0,0,2.27-2.75h0a22.29,22.29,0,0,0,2.55-4.74.61.61,0,0,0,0-.12c.21-.54.41-1.09.58-1.66v0h0a23.27,23.27,0,0,0,.7-3.13A23,23,0,0,0,68.42,46h0c.58,0,1.15,0,1.72-.07l.34,0c.55,0,1.1-.11,1.64-.2l.29-.05c.52-.09,1-.2,1.53-.32l.15,0c.54-.13,1.06-.29,1.58-.46l.3-.11c.52-.18,1-.37,1.52-.58l.16-.08c.49-.21,1-.44,1.43-.69l.15-.07c.49-.26,1-.54,1.43-.84l.19-.12a22.22,22.22,0,0,0,2.75-2.07l.06-.05c.44-.39.86-.79,1.26-1.21l0,0a21.4,21.4,0,0,0,2.27-2.75h0a22.78,22.78,0,0,0,2.56-4.74l0-.12q.32-.81.57-1.65v0h0A22.88,22.88,0,0,0,91.45,23ZM23,31.68a7.36,7.36,0,0,1-7.86,6.83A7.5,7.5,0,0,1,16.5,23.57,7.37,7.37,0,0,1,23,31.68Zm18.47-.37a22.89,22.89,0,0,1-7.84,1.4,23.06,23.06,0,0,1-8-1.42,9.32,9.32,0,0,0-8.31-10.22,8.77,8.77,0,0,0-3.48.38,22.88,22.88,0,0,1-3-14.63A20.26,20.26,0,0,1,41.5,31.31Zm27,.33a7.23,7.23,0,1,1-6.53-8.11A7.37,7.37,0,0,1,68.47,31.64ZM87,31.27a22.67,22.67,0,0,1-7.85,1.41,23,23,0,0,1-8-1.43A9.33,9.33,0,0,0,62.8,21a9,9,0,0,0-3.49.38A23,23,0,0,1,56.1,9.68a23.15,23.15,0,0,1,.2-2.9A20.26,20.26,0,0,1,87,31.27Z"/><path class="cls-1" d="M60.68,29.3a2.39,2.39,0,1,0,2.09,2.58A2.35,2.35,0,0,0,60.68,29.3Z"/></g></g></svg>